<svg preserveAspectRatio="none" viewBox="0 0 1539 1224" fill="none" xmlns="http://www.w3.org/2000/svg">
    <path vector-effect="non-scaling-stroke"
          d="M22.7894 5.81445H395.29H714.125H1217.11H1294.86C1347.72 5.81445 1400.73 8.1112 1453.86 8.1112H1490.36C1498.24 8.1112 1515.24 11.9439 1521.61 17.5C1530.77 25.5016 1530.77 39.7585 1530.77 51.9068V52.5C1536.38 80.0399 1523.43 398.984 1523.43 427.853C1523.43 445.269 1527.52 841.845 1527.52 859.055V937.145C1527.52 988.444 1531.73 1037.41 1531.73 1088.86C1531.73 1114.72 1532.95 1141 1533.84 1166.18C1534.18 1176 1534.65 1199.23 1527.52 1207.01C1520.27 1214.92 1512.32 1218.5 1502.27 1218.5C1466.93 1218.5 1120.95 1210.25 1086.27 1216.07H879.372C822.501 1216.07 528.934 1211.61 472.105 1211.61C403.573 1211.61 336.386 1209.31 267.966 1209.31H51.8004C34.4394 1209.31 11.4782 1201.59 11.4782 1179.45C11.4782 1151.78 10.1624 1116.71 10.1624 1088.86C10.1624 1058.35 5.95312 1035.73 5.95312 1006C5.95312 982.022 8.05778 275.58 8.05778 252.715V181.515V33.3754C8.05778 21.2283 8.20744 5.81445 22.7894 5.81445Z"
          stroke="#71A7FC" stroke-width="1.2vh" stroke-linecap="round"/>
    <path vector-effect="non-scaling-stroke"
          d="M8.15918 150.51C24.0136 150.51 260.946 150.51 276.474 150.51C307.683 150.51 341.786 150.51 372.917 150.51C499.979 150.51 623.949 148.213 750.953 148.213C783.764 148.213 817.11 146.332 849.865 148.213C865.382 149.104 1258.5 152.806 1274.84 152.806C1291.27 152.806 1510.94 159 1527.53 159"
          stroke="#71A7FC" stroke-width="1.2vh" stroke-linecap="round"/>
    <path vector-effect="non-scaling-stroke"
          d="M260.552 13.3477C260.552 18.2159 260.552 23.0841 260.552 27.9523C260.552 30.3979 263.897 131.802 263.897 134.16C263.897 136.32 263.676 146.736 264.566 146.25"
          stroke="#71A7FC" stroke-width="1.2vh" stroke-linecap="round"/>
    <path vector-effect="non-scaling-stroke"
          d="M516.823 8.5C516.823 15.0006 518.31 119.8 518.012 83.4504C516.029 90.7555 516.823 150.218 516.823 142.599"
          stroke="#71A7FC" stroke-width="1.2vh" stroke-linecap="round"/>
    <path vector-effect="non-scaling-stroke"
          d="M769.08 9C769.08 14.5377 769.08 113.552 769.08 113.552C769.08 124.451 769.08 135.351 769.08 146.25"
          stroke="#71A7FC" stroke-width="1.2vh" stroke-linecap="round"/>
    <path vector-effect="non-scaling-stroke"
          d="M1025.98 12.501C1025.98 19.1309 1025.98 102.031 1025.98 102.031C1026.34 107.635 1025.98 145.342 1025.98 151.001"
          stroke="#71A7FC" stroke-width="1.2vh" stroke-linecap="round"/>
    <path vector-effect="non-scaling-stroke"
          d="M1274.93 8.9668C1274.93 36.1679 1274.69 63.2112 1273.63 90.3471C1272.87 109.939 1274.26 168.781 1274.26 149.171"
          stroke="#71A7FC" stroke-width="1.2vh" stroke-linecap="round"/>
</svg>
