<svg preserveAspectRatio="none" viewBox="0 0 1412 1040" fill="none" xmlns="http://www.w3.org/2000/svg">
<g filter="url(#filter0_d_30_98)">
<path d="M27.224 7.68485C37.4351 7.68485 205.6 9.59944 215.811 9.59944C243.898 9.59944 271.585 11.514 299.521 11.514H331.643C343.179 11.514 354.616 7.68485 366.106 7.68485H656.166C745.374 7.68485 833.798 11.514 923.251 11.514C944.736 11.514 967.482 7.68485 989.304 7.68485H1023.77C1033.25 7.68485 1047.07 10.1908 1056.21 7.57849C1074.06 2.47802 1095.94 7.68485 1113.75 7.68485H1184.49C1232.58 7.68485 1280.8 9.59944 1329.14 9.59944C1340.14 9.59944 1350.45 13.4286 1361.69 13.4286C1368.86 13.4286 1384.2 14.9662 1389.98 19.5978C1398.46 26.3769 1396.15 35.7446 1396.15 45.9766C1401.26 68.9341 1392.43 335.435 1392.43 359.5C1392.43 374.018 1396.15 704.608 1396.15 718.954V784.05C1396.15 826.814 1399.98 867.636 1399.98 910.519C1399.98 932.081 1401.09 953.987 1401.9 974.977C1402.21 983.162 1402.64 1002.53 1396.15 1009.01C1389.56 1015.61 1382.32 1018.59 1373.18 1018.59C1341.03 1018.59 1225.72 1017.46 1194.17 1022.31C1156.96 1028.03 1117.6 1026.25 1079.82 1026.25C1039.3 1026.25 998.38 1024.33 958.139 1024.33C907.977 1024.33 856.68 1022.31 806.5 1022.31C775.054 1022.31 748.79 1018.59 717 1018.59C698.653 1020.63 608.874 1018.59 590.219 1018.59C538.481 1018.59 487.689 1012.84 435.988 1012.84C373.642 1012.84 312.518 1010.93 250.273 1010.93C209.262 1010.93 166.689 1009.01 126.783 1009.01C116.772 1009.01 107.716 1005.18 98.0637 1005.18H67.4303C51.6361 1005.18 23.3948 998.755 23.3948 980.295C23.3948 957.226 15.7364 933.738 15.7364 910.519C15.7364 885.088 17.651 858.614 17.651 833.829C17.651 821.759 19.2492 808.427 17.5447 796.495C15.441 781.769 11.9073 767.44 11.9073 752.459C11.9073 720.052 9.99268 685.941 9.99268 652.901C9.99268 632.027 17.651 476.502 17.651 455.698C17.651 436.889 15.7364 416.17 15.7364 396.346C15.7364 354.424 11.9073 314.555 11.9073 272.855C11.9073 252.867 13.8219 232.564 13.8219 213.503V154.151V30.6599C13.8219 20.534 13.958 7.68485 27.224 7.68485Z" stroke="#71A7FC" stroke-width="10" stroke-linecap="round"/>
<path d="M13.8218 124.475C13.8218 136.962 43.1634 132.133 52.1135 132.133C66.1538 132.133 80.1941 132.133 94.2345 132.133C108.688 132.133 121.946 134.048 136.355 134.048C143.726 134.048 150.376 132.133 157.416 132.133C161.802 132.133 172.428 131.63 176.562 129.793C187.662 124.86 206.459 128.304 218.683 128.304C233.106 128.304 246.677 130.218 260.804 130.218C289.196 130.218 314.81 126.389 343.131 126.389C458.726 126.389 574.13 126.389 689.671 126.389C719.521 126.389 749.858 124.821 779.657 126.389C793.773 127.132 806.908 132.133 821.778 132.133C836.314 132.133 850.851 132.133 865.388 132.133C896.163 132.133 926.938 132.133 957.714 132.133C970.643 132.133 990.078 132.002 1001.75 126.815C1013.16 121.743 1031.33 124.475 1043.87 124.475C1057.23 124.475 1069.85 128.304 1084.08 128.304C1100.9 128.304 1115.6 130.218 1132.37 130.218C1163.24 130.218 1193.28 128.304 1223.84 128.304C1251.92 128.304 1280 128.304 1308.08 128.304C1323.03 128.304 1337.03 130.218 1352.12 130.218C1358.9 130.218 1389.67 133.623 1392.32 128.304" stroke="#71A7FC" stroke-width="10" stroke-linecap="round"/>
<path d="M243.528 13.9648C243.528 18.023 243.528 22.0812 243.528 26.1394C243.528 28.1781 244.746 29.9901 244.746 31.9561C244.746 33.659 245.47 37.7911 246.268 39.2271C248.049 42.4343 246.572 50.3806 246.572 54.1409C246.572 58.6108 245.963 62.4232 245.963 66.9242C245.963 77.1481 246.572 87.2482 246.572 97.3606C246.572 103.132 246.572 108.904 246.572 114.675C246.572 116.476 246.371 125.158 247.181 124.753" stroke="#71A7FC" stroke-width="10" stroke-linecap="round"/>
<path d="M473.627 9.70386C473.627 19.9557 476.062 29.9206 476.062 40.1403C476.062 45.1718 476.671 50.2312 476.671 55.3584C476.671 60.7774 476.579 67.1188 477.753 72.4028C478.986 77.9508 478.497 84.2274 478.497 89.9207C478.497 93.9704 479.182 98.7947 478.024 102.704C476.219 108.794 476.671 128.061 476.671 121.71" stroke="#71A7FC" stroke-width="10" stroke-linecap="round"/>
<path d="M704.335 7.87769C704.335 12.5333 704.335 17.189 704.335 21.8446C704.335 25.7095 705.553 29.5781 705.553 33.4104C705.553 38.0267 706.699 43.8285 707.683 48.3581C708.897 53.9406 708.597 60.3003 708.597 66.0112C708.597 76.7149 706.162 86.8703 706.162 97.496C706.162 106.582 706.162 115.668 706.162 124.753" stroke="#71A7FC" stroke-width="10" stroke-linecap="round"/>
<path d="M935.652 12.1387C935.793 16.3745 937.239 20.4067 937.444 24.6176C937.635 28.519 937.429 32.4475 937.478 36.3525C937.521 39.7614 938.087 43.1061 938.087 46.5318C938.087 49.6111 937.706 52.953 938.391 55.9671C939.468 60.7037 938.696 66.3372 938.696 71.1853C938.696 76.7121 939.498 82.3637 939.879 87.8915C940.202 92.5628 941.131 96.938 941.131 101.655C941.131 106.762 941.131 111.869 941.131 116.975C941.131 120.582 941.131 124.19 941.131 127.797C941.131 129.006 941.674 134.394 940.522 132.667" stroke="#71A7FC" stroke-width="10" stroke-linecap="round"/>
<path d="M1166.36 10.3125C1166.36 32.9876 1166.14 55.5311 1165.18 78.1518C1164.48 94.4837 1165.75 143.535 1165.75 127.188" stroke="#71A7FC" stroke-width="10" stroke-linecap="round"/>
</g>
<defs>
<filter id="filter0_d_30_98" x="0.992676" y="0.338379" width="1410.06" height="1039.17" filterUnits="userSpaceOnUse" color-interpolation-filters="sRGB">
<feFlood flood-opacity="0" result="BackgroundImageFix"/>
<feColorMatrix in="SourceAlpha" type="matrix" values="0 0 0 0 0 0 0 0 0 0 0 0 0 0 0 0 0 0 127 0" result="hardAlpha"/>
<feOffset dy="4"/>
<feGaussianBlur stdDeviation="2"/>
<feComposite in2="hardAlpha" operator="out"/>
<feColorMatrix type="matrix" values="0 0 0 0 0 0 0 0 0 0 0 0 0 0 0 0 0 0 0.25 0"/>
<feBlend mode="normal" in2="BackgroundImageFix" result="effect1_dropShadow_30_98"/>
<feBlend mode="normal" in="SourceGraphic" in2="effect1_dropShadow_30_98" result="shape"/>
</filter>
</defs>
</svg>
