<svg width="77" height="72" viewBox="0 0 77 72" fill="none" xmlns="http://www.w3.org/2000/svg">
<g filter="url(#filter0_d_28_78)">
<path d="M32.7833 19.6421C30.5144 19.6421 28.5132 19.6734 26.3749 18.8023C24.4634 18.0235 22.771 16.6557 20.9524 15.6985C16.7655 13.4949 13.5099 9.72005 10.1075 6.49673C9.26106 5.69488 9.12156 5.86709 9.12156 6.98968C9.12156 9.10147 9.12156 11.2132 9.12156 13.325C9.12156 21.0175 9.12156 28.71 9.12156 36.4025C9.12156 37.4949 8.66439 41.7147 9.52322 42.5735C9.85097 42.9013 12.4879 41.9275 12.9191 41.8067C15.1827 41.1729 17.3127 40.1141 19.1267 38.6299C21.9119 36.3511 24.923 34.7164 27.1965 31.8746C30.5976 27.6232 34.0974 24.0439 38.9543 21.3583C45.1602 17.9268 51.9297 15.6633 58.1064 12.2661C58.913 11.8225 67.2899 7.24626 67.2899 8.97975C67.2899 14.7795 67.2899 20.5793 67.2899 26.3791C67.2899 30.1056 67.3831 33.8458 67.2899 37.571C67.2678 38.4564 66.9697 39.0316 66.1214 39.0316C64.5162 39.0316 63.6926 38.926 62.2874 38.1187C58.9109 36.179 54.8306 35.3768 51.2598 33.8465C46.4274 31.7754 42.9558 28.568 39.356 24.9003C38.4446 23.9718 37.425 23.1035 36.7999 21.9426C36.7224 21.7986 35.8912 19.9559 35.7592 21.0114C35.6199 22.1258 35.7996 23.2324 35.5949 24.3526C35.0862 27.137 33.8169 29.7356 33.1119 32.4771C31.4142 39.0792 28.6682 45.5541 27.1965 52.177C26.7167 54.336 25.2247 56.2294 25.2247 58.421" stroke="#71A7FC" stroke-width="10" stroke-linecap="round"/>
<path d="M35.0836 21.9426C35.0836 21.3943 35.0681 23.0447 35.1566 23.5858C35.3576 24.814 35.8446 25.9889 36.3251 27.1277C37.1708 29.1324 38.1841 31.0463 39.0272 33.0431C40.8405 37.3378 42.8138 41.5945 44.121 46.0972C44.8762 48.6985 45.6622 51.3893 46.2389 53.9845C46.4779 55.0599 47.2544 57.6051 48.229 58.0924" stroke="#71A7FC" stroke-width="10" stroke-linecap="round"/>
</g>
<defs>
<filter id="filter0_d_28_78" x="0" y="0.991211" width="76.3311" height="70.4298" filterUnits="userSpaceOnUse" color-interpolation-filters="sRGB">
<feFlood flood-opacity="0" result="BackgroundImageFix"/>
<feColorMatrix in="SourceAlpha" type="matrix" values="0 0 0 0 0 0 0 0 0 0 0 0 0 0 0 0 0 0 127 0" result="hardAlpha"/>
<feOffset dy="4"/>
<feGaussianBlur stdDeviation="2"/>
<feComposite in2="hardAlpha" operator="out"/>
<feColorMatrix type="matrix" values="0 0 0 0 0 0 0 0 0 0 0 0 0 0 0 0 0 0 0.25 0"/>
<feBlend mode="normal" in2="BackgroundImageFix" result="effect1_dropShadow_28_78"/>
<feBlend mode="normal" in="SourceGraphic" in2="effect1_dropShadow_28_78" result="shape"/>
</filter>
</defs>
</svg>
