<svg width="72" height="57" viewBox="0 0 72 57" fill="none" xmlns="http://www.w3.org/2000/svg">
<g filter="url(#filter0_d_28_75)">
<path d="M11.6432 41.3566C11.6432 38.567 10.3822 36.0536 9.54252 33.4339C8.59583 30.4803 8.93982 25.9445 10.1727 23.1705C12.839 17.1714 19.2781 15.0488 25.2528 13.9424C27.6831 13.4923 30.0067 12.9731 32.3052 12.0367C34.6405 11.0853 36.03 9.39689 37.9921 7.92533C39.4905 6.80152 42.3787 5.22725 44.2642 5.1644C47.4101 5.05954 51.2357 4.61643 54.1526 5.83963C57.174 7.10666 59.5565 8.72011 61.475 11.3765C63.1735 13.7282 62.2591 16.7006 61.1749 19.1191C59.381 23.121 56.2366 25.4066 53.3873 28.5273C50.8921 31.2601 47.6266 33.3134 45.3446 36.2249C43.1761 38.9916 39.7178 40.1015 36.5816 41.4166C33.3449 42.774 28.9122 43.2472 25.4029 43.2472C22.8085 43.2472 20.6743 43.6433 18.1104 42.8421C16.7716 42.4237 14.7082 41.1924 14.3441 39.7361" stroke="#71A7FC" stroke-width="10" stroke-linecap="round"/>
<path d="M27.0382 30.0128C26.3665 29.9288 26.9948 28.4915 27.4583 28.4072C28.7164 28.1785 29.9928 28.5652 31.0896 29.1425C32.9779 30.1363 28.6561 32.7097 27.0382 30.2829" stroke="#71A7FC" stroke-width="10" stroke-linecap="round"/>
</g>
<defs>
<filter id="filter0_d_28_75" x="0" y="0.000427246" width="71.4146" height="56.347" filterUnits="userSpaceOnUse" color-interpolation-filters="sRGB">
<feFlood flood-opacity="0" result="BackgroundImageFix"/>
<feColorMatrix in="SourceAlpha" type="matrix" values="0 0 0 0 0 0 0 0 0 0 0 0 0 0 0 0 0 0 127 0" result="hardAlpha"/>
<feOffset dy="4"/>
<feGaussianBlur stdDeviation="2"/>
<feComposite in2="hardAlpha" operator="out"/>
<feColorMatrix type="matrix" values="0 0 0 0 0 0 0 0 0 0 0 0 0 0 0 0 0 0 0.25 0"/>
<feBlend mode="normal" in2="BackgroundImageFix" result="effect1_dropShadow_28_75"/>
<feBlend mode="normal" in="SourceGraphic" in2="effect1_dropShadow_28_75" result="shape"/>
</filter>
</defs>
</svg>
