<svg width="65" height="60" viewBox="0 0 65 60" fill="none" xmlns="http://www.w3.org/2000/svg">
<g filter="url(#filter0_d_28_74)">
<path d="M36.6964 17.8064C36.6964 14.2905 38.8813 11.1625 41.6622 9.30856C43.7681 7.90464 45.1342 7.10541 47.7296 7.10541C51.1468 7.10541 53.0156 10.1667 54.0068 13.0854C54.9779 15.9448 55.6897 20.0521 54.7587 23.052C53.5543 26.9329 51.1855 28.9651 48.0269 31.2701C44.2278 34.0423 40.0021 36.0778 36.2243 38.8762C34.405 40.2238 32.6206 41.6794 30.8913 43.1426C30.4782 43.4921 27.8838 46.1738 27.8838 45.1884" stroke="#71A7FC" stroke-width="10" stroke-linecap="round"/>
<path d="M33.8641 21.2686C33.8641 19.7229 33.1552 18.4729 32.9199 17.0021C32.6198 15.1264 32.0668 13.1868 31.5036 11.3719C30.5666 8.35273 29.0242 5.80421 25.5761 5.28699C21.2727 4.64148 15.2468 4.89691 11.9026 8.03218C10.3537 9.48419 10.174 11.4874 9.76935 13.4526C9.226 16.0918 9 18.3336 9 21.0412C9 25.2014 12.9184 29.1343 15.0499 32.4242C16.1297 34.0907 17.2814 35.8127 18.5994 37.3026C19.4124 38.2216 20.452 39.1671 20.9599 40.31C21.2879 41.0479 24.3047 46.5647 24.422 46.4474" stroke="#71A7FC" stroke-width="10" stroke-linecap="round"/>
</g>
<defs>
<filter id="filter0_d_28_74" x="0" y="0" width="64.1929" height="59.4442" filterUnits="userSpaceOnUse" color-interpolation-filters="sRGB">
<feFlood flood-opacity="0" result="BackgroundImageFix"/>
<feColorMatrix in="SourceAlpha" type="matrix" values="0 0 0 0 0 0 0 0 0 0 0 0 0 0 0 0 0 0 127 0" result="hardAlpha"/>
<feOffset dy="4"/>
<feGaussianBlur stdDeviation="2"/>
<feComposite in2="hardAlpha" operator="out"/>
<feColorMatrix type="matrix" values="0 0 0 0 0 0 0 0 0 0 0 0 0 0 0 0 0 0 0.25 0"/>
<feBlend mode="normal" in2="BackgroundImageFix" result="effect1_dropShadow_28_74"/>
<feBlend mode="normal" in="SourceGraphic" in2="effect1_dropShadow_28_74" result="shape"/>
</filter>
</defs>
</svg>
