<svg width="36" height="37" stroke-width="3" stroke-linecap="round" stroke="#A463C3" viewBox="0 0 36 37" fill="none" xmlns="http://www.w3.org/2000/svg">
    <path d="M15.1596 22.8687C14.6504 22.3096 14.2596 21.6453 13.9717 20.9227C13.8753 20.6808 13.6818 20.4252 13.5228 20.2301C13.3371 20.0022 13.2539 19.6316 13.1049 19.3718C12.9289 19.0649 12.7913 18.6691 12.7025 18.3181C12.5882 17.8662 12.3317 17.4666 12.215 17.0179C11.9441 15.9768 11.2785 15.1083 11.5688 13.9927C11.6954 13.5062 11.7509 13.1016 11.9751 12.6586C12.2153 12.1836 12.5732 12.0993 12.9811 11.8173C13.8161 11.24 15.2133 11.145 16.1308 11.5113C16.5663 11.6852 17.1516 12.3816 17.3691 12.8115C17.71 13.4855 17.9198 14.2371 18.1485 14.9749C17.9639 14.1319 19.3708 13.5763 20.0003 13.5763L20.0174 13.5763C20.5052 13.5763 20.9254 13.5763 21.3933 13.7123C22.1827 13.9417 22.3868 14.6361 22.7863 15.3184C22.758 14.8842 22.7505 14.0442 23.239 13.8058C23.6749 13.5931 24.5742 13.1844 25.0551 13.3469C25.5999 13.5309 25.7155 14.0415 26.0598 14.5876C26.1839 14.7844 26.3537 15.1093 26.5368 15.4814C26.5368 14.8463 26.7604 13.5801 27.3445 13.3469C28.0091 13.0815 28.6286 13.131 29.1941 13.6188C30.4023 14.6612 30.6896 16.3178 31.4925 17.6893C31.8313 18.268 32.0394 18.9341 32.367 19.4993C32.6384 19.9676 32.6873 20.5726 32.9203 21.0332C33.1746 21.5358 33.2134 22.3053 33.5278 22.737C33.6607 22.9193 33.6016 23.3693 33.6671 23.6123C33.7352 23.8644 33.8472 24.0957 33.8606 24.3601C33.884 24.8218 33.9999 25.2537 33.9999 25.7367C33.9999 26.4965 33.8007 27.0651 33.6517 27.8017C33.424 28.9266 32.1094 29.677 31.299 30.2491C30.7582 30.6309 30.1581 31.0363 29.5771 31.3198C29.359 31.4263 29.1603 31.6205 28.9503 31.7447C28.5563 31.9777 28.0919 32.1105 27.7275 32.3905C26.8429 33.0705 25.6998 33.4843 24.7357 34.0136C24.1557 34.3321 23.6887 34.6269 23.0997 34.9144C22.8457 35.0384 22.561 34.9909 22.2833 34.9909C21.9183 34.9909 21.4279 35.0518 21.0992 34.8379C20.8667 34.6866 20.5912 34.6057 20.3485 34.4725C20.1192 34.3466 19.9379 34.1455 19.7217 34.0136C19.1612 33.6717 17.0437 32.102 16.5178 31.7022C15.9489 31.0776 11.982 27.4956 11.3185 26.9912C10.6654 26.6725 9.20578 24.802 10.0731 23.1812C10.5827 22.229 11.6194 22.0373 12.1685 21.9569C12.7822 21.867 14.5954 22.5407 15.1596 22.8687Z"
          fill="white"/>
    <path d="M16.5259 24.4641C16.1668 23.9199 15.5285 23.2738 15.1596 22.8687M15.1596 22.8687C14.6504 22.3096 14.2596 21.6453 13.9717 20.9227C13.8753 20.6808 13.6818 20.4252 13.5228 20.2301C13.3371 20.0022 13.2539 19.6316 13.1049 19.3718C12.9289 19.0649 12.7913 18.6691 12.7025 18.3181C12.5882 17.8662 12.3317 17.4666 12.215 17.0179C11.9441 15.9768 11.2785 15.1083 11.5688 13.9927C11.6954 13.5062 11.7509 13.1016 11.9751 12.6586C12.2153 12.1836 12.5732 12.0993 12.9811 11.8173C13.8161 11.24 15.2133 11.145 16.1308 11.5113C16.5663 11.6852 17.1516 12.3816 17.3691 12.8115C17.7302 13.5254 17.9442 14.3264 18.1894 15.1059M15.1596 22.8687C14.5954 22.5407 12.7822 21.867 12.1685 21.9569C11.6194 22.0373 10.5827 22.229 10.0731 23.1812C9.20578 24.802 10.6654 26.6725 11.3185 26.9912C11.982 27.4956 15.9489 31.0776 16.5178 31.7022C17.0437 32.102 19.1612 33.6717 19.7217 34.0136C19.9379 34.1455 20.1192 34.3466 20.3485 34.4725C20.5912 34.6057 20.8667 34.6866 21.0992 34.8379C21.4279 35.0518 21.9183 34.9909 22.2833 34.9909C22.561 34.9909 22.8457 35.0384 23.0997 34.9144C23.6887 34.6269 24.1557 34.3321 24.7357 34.0136C25.6998 33.4843 26.8429 33.0705 27.7275 32.3905C28.0919 32.1105 28.5563 31.9777 28.9503 31.7447C29.1603 31.6205 29.359 31.4263 29.5771 31.3198C30.1581 31.0363 30.7582 30.6309 31.299 30.2491C32.1094 29.677 33.424 28.9266 33.6517 27.8017C33.8007 27.0651 33.9999 26.4965 33.9999 25.7367C33.9999 25.2537 33.884 24.8218 33.8606 24.3601C33.8472 24.0957 33.7352 23.8644 33.6671 23.6123C33.6016 23.3693 33.6607 22.9193 33.5278 22.737C33.2134 22.3053 33.1746 21.5358 32.9203 21.0332C32.6873 20.5726 32.6384 19.9676 32.367 19.4993C32.0394 18.9341 31.8313 18.268 31.4925 17.6893C30.6896 16.3178 30.4023 14.6612 29.1941 13.6188C28.6286 13.131 28.0091 13.0815 27.3445 13.3469C26.7604 13.5801 26.5368 14.8463 26.5368 15.4814M18.1894 15.1059C18.3803 15.5776 18.5952 16.2767 18.7621 16.7715C18.9548 17.343 19.2406 17.8776 19.4083 18.4668C19.6623 19.1962 20.1304 20.3777 20.5584 20.9522M18.1894 15.1059C17.8186 14.1899 19.3387 13.5763 20.0003 13.5763C20.4954 13.5763 20.9199 13.5747 21.3933 13.7123C22.1827 13.9417 22.3868 14.6361 22.7863 15.3184M22.7863 15.3184C23.1216 15.8911 24.3449 18.5788 24.5908 19.1962M22.7863 15.3184C22.758 14.8842 22.7505 14.0442 23.239 13.8058C23.6749 13.5931 24.5742 13.1844 25.0551 13.3469C25.5999 13.5309 25.7155 14.0415 26.0598 14.5876C26.4421 15.1939 27.2583 17.0154 27.5591 17.6893"/>
    <path d="M13.9017 7.43428C13.7419 6.44283 13.5822 5.45137 13.4225 4.45991C13.292 3.64984 13.2916 2.64652 12.8994 1.90527"/>
    <path d="M10.3126 9.73774C10.2653 9.44425 10.1235 9.1927 9.91112 8.97697C9.51121 8.57068 9.17623 8.10854 8.76173 7.70943C8.1853 7.15439 7.65332 6.52204 7.14243 5.91032C6.81993 5.52417 6.46456 5.15065 6.1622 4.75022C6.03418 4.58067 5.78485 4.44509 5.69531 4.27588"/>
    <path d="M8.03817 12.932C7.84036 12.9626 7.67885 12.9726 7.47752 12.9337C7.17388 12.875 6.88549 12.7337 6.5862 12.6525C6.16363 12.5379 5.74265 12.4394 5.32504 12.3071C4.29562 11.981 3.23144 11.6917 2.20898 11.374"/>
    <path d="M17.3021 8.11096C17.2646 7.87868 17.3417 7.66657 17.4507 7.45642C17.7816 6.81865 18.1803 6.22091 18.513 5.58574C18.826 4.9879 19.0769 4.36342 19.4486 3.79535C19.557 3.62976 19.6275 3.46576 19.6455 3.26695"/>
</svg>
