<svg width="28" height="28" stroke="#A463C3" stroke-width="3" stroke-linecap="round" viewBox="0 0 28 28" fill="none"
     xmlns="http://www.w3.org/2000/svg">
    <path d="M6.95063 13.9874C6.44145 13.4282 6.05061 12.7639 5.76272 12.0414C5.66635 11.7995 5.47278 11.5438 5.31386 11.3488C5.12815 11.1209 5.04489 10.7502 4.89596 10.4905C4.71995 10.1835 4.58232 9.78772 4.49354 9.43677C4.37922 8.98486 4.12274 8.58528 4.00599 8.1366C3.73509 7.09545 3.06953 6.22694 3.3598 5.11137C3.48639 4.62485 3.54192 4.22028 3.76609 3.77721C4.00636 3.3023 4.36425 3.21793 4.77214 2.93592C5.60715 2.35861 7.00432 2.26363 7.92186 2.63C8.35727 2.80386 8.94259 3.50028 9.16008 3.93017C9.50105 4.6041 9.71078 5.35574 9.93952 6.0936C9.75495 5.25057 11.1618 4.69497 11.7913 4.69497L11.8084 4.69497C12.2962 4.69495 12.7164 4.69494 13.1843 4.83094C13.9737 5.06039 14.1779 5.75473 14.5773 6.43703C14.5491 6.00286 14.5416 5.1628 15.03 4.92441C15.4659 4.71171 16.3652 4.30306 16.8461 4.46553C17.3909 4.64959 17.5065 5.16012 17.8508 5.70622C17.9749 5.90305 18.1448 6.22794 18.3278 6.60005C18.3278 5.96493 18.5514 4.69876 19.1355 4.46553C19.8001 4.20016 20.4196 4.2496 20.9851 4.73746C22.1933 5.77988 22.4806 7.43644 23.2835 8.80793C23.6223 9.38665 23.8304 10.0527 24.158 10.618C24.4294 11.0862 24.4783 11.6913 24.7113 12.1518C24.9656 12.6544 25.0044 13.424 25.3188 13.8556C25.4517 14.038 25.3926 14.4879 25.4581 14.7309C25.5262 14.983 25.6382 15.2144 25.6516 15.4787C25.675 15.9404 25.7909 16.3724 25.7909 16.8554C25.7909 17.6152 25.5917 18.1837 25.4427 18.9204C25.215 20.0453 23.9004 20.7957 23.0901 21.3677C22.5492 21.7495 21.9491 22.1549 21.3681 22.4385C21.15 22.5449 20.9513 22.7392 20.7413 22.8633C20.3473 23.0963 19.8829 23.2291 19.5186 23.5092C18.6339 24.1892 17.4908 24.603 16.5268 25.1323C15.9468 25.4507 15.4798 25.7456 14.8907 26.033C14.6367 26.157 14.352 26.1095 14.0743 26.1095C13.7093 26.1095 13.219 26.1705 12.8902 25.9566C12.6577 25.8052 12.3822 25.7244 12.1396 25.5912C11.9102 25.4652 11.7289 25.2642 11.5127 25.1323C10.9522 24.7904 8.83473 23.2207 8.30881 22.8209C7.73996 22.1962 3.77298 18.6142 3.10955 18.1099C2.45644 17.7912 0.996795 15.9206 1.86413 14.2999C2.37372 13.3476 3.41046 13.1559 3.95956 13.0755C4.57324 12.9857 6.38645 13.6594 6.95063 13.9874Z"
          fill="white"/>
    <path d="M8.31695 15.5827C7.95784 15.0386 7.31954 14.3924 6.95063 13.9874M6.95063 13.9874C6.44145 13.4282 6.05061 12.7639 5.76272 12.0414C5.66635 11.7995 5.47278 11.5438 5.31386 11.3488C5.12815 11.1209 5.04489 10.7502 4.89596 10.4905C4.71995 10.1835 4.58232 9.78772 4.49354 9.43677C4.37922 8.98486 4.12274 8.58528 4.00599 8.1366C3.73509 7.09545 3.06953 6.22694 3.3598 5.11137C3.48639 4.62485 3.54192 4.22028 3.76609 3.77721C4.00636 3.3023 4.36425 3.21793 4.77214 2.93592C5.60715 2.35861 7.00432 2.26363 7.92186 2.63C8.35727 2.80386 8.94259 3.50028 9.16008 3.93017C9.52125 4.64403 9.73518 5.44508 9.98041 6.22458M6.95063 13.9874C6.38645 13.6594 4.57324 12.9857 3.95956 13.0755C3.41046 13.1559 2.37372 13.3476 1.86413 14.2999C0.996795 15.9206 2.45644 17.7912 3.10955 18.1099C3.77298 18.6142 7.73996 22.1962 8.30881 22.8209C8.83473 23.2207 10.9522 24.7904 11.5127 25.1323C11.7289 25.2642 11.9102 25.4652 12.1396 25.5912C12.3822 25.7244 12.6577 25.8052 12.8902 25.9566C13.219 26.1705 13.7093 26.1095 14.0743 26.1095C14.352 26.1095 14.6367 26.157 14.8907 26.033C15.4798 25.7456 15.9468 25.4507 16.5268 25.1323C17.4908 24.603 18.6339 24.1892 19.5186 23.5092C19.8829 23.2291 20.3473 23.0963 20.7413 22.8634C20.9513 22.7392 21.15 22.5449 21.3681 22.4385C21.9491 22.1549 22.5492 21.7495 23.0901 21.3677C23.9004 20.7957 25.215 20.0453 25.4427 18.9204C25.5917 18.1837 25.7909 17.6152 25.7909 16.8554C25.7909 16.3724 25.675 15.9404 25.6516 15.4787C25.6382 15.2144 25.5262 14.983 25.4581 14.7309C25.3926 14.4879 25.4517 14.038 25.3188 13.8556C25.0044 13.424 24.9656 12.6544 24.7113 12.1518C24.4783 11.6913 24.4294 11.0862 24.158 10.618C23.8304 10.0527 23.6223 9.38665 23.2835 8.80793C22.4806 7.43644 22.1933 5.77988 20.9851 4.73746C20.4196 4.2496 19.8001 4.20016 19.1355 4.46553C18.5514 4.69876 18.3278 5.96493 18.3278 6.60005M9.98041 6.22458C10.1713 6.69628 10.3862 7.39535 10.5531 7.89016C10.7458 8.46161 11.0316 8.99628 11.1993 9.58548C11.4533 10.3149 11.9214 11.4964 12.3494 12.0708M9.98041 6.22458C9.60966 5.30859 11.1297 4.69497 11.7913 4.69497C12.2865 4.69497 12.711 4.69335 13.1843 4.83094C13.9737 5.06039 14.1779 5.75473 14.5773 6.43703M14.5773 6.43703C14.9126 7.00976 16.1359 9.69749 16.3819 10.3149M14.5773 6.43703C14.5491 6.00286 14.5416 5.1628 15.03 4.92441C15.4659 4.71171 16.3652 4.30306 16.8461 4.46553C17.3909 4.64959 17.5065 5.16012 17.8508 5.70622C18.2331 6.31256 19.0493 8.13409 19.3501 8.80793"
    />
</svg>