<svg preserveAspectRatio="none" xmlns="http://www.w3.org/2000/svg" viewBox="0 0 266 157"
     fill="none">
    <path d="M10.7475 28.7323C11.0891 25.6572 15.9267 23.0474 17.8885 21.1945C21.6595 17.6331 25.8585 14.7617 30.5838 12.4665C31.9426 11.8066 38.1809 10.5122 38.8269 12.3784C40.269 16.5446 36.5985 19.3299 33.6694 21.5031C23.4391 29.0934 15.3048 38.6278 10.1744 50.2878C9.57331 51.6539 9.05902 52.3671 10.3948 50.8829C13.9235 46.9622 17.1452 42.8 21.0623 39.2456C25.1478 35.5384 29.0211 31.5753 33.1625 27.9389C36.3031 25.1812 39.8511 22.8451 42.8823 19.9823C45.7526 17.2715 48.6276 14.135 52.007 12.0698C54.6149 10.4761 56.6043 8.25918 59.5007 7.13278C61.1448 6.49344 60.8596 6.94958 60.0958 8.12459C56.7017 13.3464 51.7328 17.9607 47.2463 22.1863C41.0241 28.0468 34.7393 33.8185 28.4459 39.5982C24.6033 43.1271 21.6536 47.2116 18.2853 51.1694C14.657 55.4327 11.0275 59.8877 7.99241 64.592C7.6843 65.0696 5.733 68.2101 6.03082 67.3911C6.53466 66.0056 8.3274 64.5215 9.31483 63.5341C13.1783 59.6706 17.5753 56.3615 21.8338 52.9547C30.4414 46.0685 39.2003 39.3747 47.8193 32.5012C53.9903 27.5801 59.8879 22.2692 66.2892 17.646C70.9586 14.2737 75.5634 10.3919 80.4832 7.39726C82.8167 5.97684 82.2686 6.77418 80.7917 8.27888C76.0714 13.0883 71.4198 18.0675 66.7741 22.9578C55.4417 34.8866 44.1269 46.8383 33.449 59.3684C27.2051 66.6954 20.7248 73.9224 14.8029 81.497C13.48 83.189 12.7302 85.5642 11.1442 87.0511C11.011 87.176 12.9779 84.091 13.3923 83.6128C17.7268 78.6115 22.6466 74.2028 27.5863 69.8156C40.9926 57.9086 54.3954 46.0548 68.405 34.8596C74.1423 30.2749 79.8621 24.8448 86.1255 20.9741C88.6862 19.3917 91.1273 17.7855 93.5751 16.0371C94.7629 15.1887 95.5214 13.8297 96.8371 13.1718C98.7204 12.2302 95.829 15.4539 95.5588 15.7285C88.985 22.4083 82.6299 29.3065 76.1192 36.0497C63.0954 49.5387 48.217 61.3808 35.9396 75.5681C29.6261 82.8637 22.5051 89.4713 16.1473 96.7709C14.6205 98.524 12.6136 101.16 11.9597 103.449C11.9411 103.514 12.0692 102.696 12.2242 102.457C13.9631 99.7821 17.1376 97.6284 19.4093 95.4485C32.7287 82.6673 45.8454 69.9156 59.9195 57.9358C71.8273 47.8 84.2717 38.4143 96.5726 28.7764C105.807 21.5413 114.817 14.9124 124.917 8.98417C125.25 8.7883 128.19 7.23462 126.988 8.49928C121.323 14.4623 113.609 19.03 107.152 24.0598C88.9575 38.2323 71.3214 53.0189 54.0788 68.3168C48.624 73.1564 44.1312 79.0055 39.0032 84.1859C35.6893 87.5336 32.9798 91.1934 30.0989 94.8975C27.3343 98.452 24.0081 101.681 21.4591 105.389C18.721 109.371 16.1744 113.597 13.7449 117.775C12.6317 119.69 8.83559 125.15 10.0642 123.308C11.0888 121.771 13.9699 120.41 15.42 119.296C20.1632 115.653 24.9585 112.087 29.7242 108.474C44.7374 97.0934 58.0543 83.377 72.218 70.9837C80.1937 64.005 88.7732 57.9556 97.0355 51.3457C100.866 48.2812 104.715 45.2415 108.563 42.199C111.995 39.4847 115.073 36.2022 118.657 33.7135C125.422 29.0158 131.424 23.3801 137.876 18.2632C138.805 17.5267 143.144 14.4502 139.485 14.4502C136.92 14.4502 133.754 17.7977 131.903 19.2329C125.401 24.2754 119.383 29.502 113.301 35.0579C106.323 41.4329 99.1995 47.665 92.0984 53.9024C85.3205 59.856 78.8222 66.1686 71.8433 71.8874C66.0599 76.6266 60.6077 81.6764 54.3874 85.861C50.0378 88.787 46.0009 92.1027 41.9125 95.3824C32.7013 102.772 26.7073 113.166 19.8722 122.58C16.2375 127.586 12.9777 132.836 9.16055 137.744C8.50364 138.589 6.65579 140.511 8.36709 138.846C9.95329 137.303 11.8069 136.233 13.6127 134.967C17.0228 132.577 20.0614 129.732 23.2223 127.032C34.639 117.283 44.7551 106.123 56.371 96.5726C60.4808 93.1934 64.6673 89.8211 68.4491 86.0814C72.3047 82.2686 76.7796 79.1976 80.6595 75.4579C89.1759 67.2493 99.2911 60.878 108.739 53.8143C118.847 46.2566 129.454 39.5168 140.058 32.6996C146.497 28.5604 153.283 24.7091 159.895 20.8198C160.648 20.3768 163.992 18.7327 164.259 17.8003C164.48 17.0271 164.784 16.0989 165.294 15.442C165.713 14.9045 166.427 13.3041 167.234 13.3041C167.755 13.3041 166.305 15.02 166.242 15.1114C164.45 17.7107 162.687 20.2264 160.644 22.6492C152.162 32.7062 142.555 41.4882 132.168 49.5384C124.032 55.8435 115.468 61.5472 107.328 67.8319C84.7377 85.2753 59.6903 100.413 41.6921 122.911C37.262 128.448 31.878 133.244 27.432 138.802C25.6129 141.076 23.6539 143.227 21.8558 145.524C21.6223 145.823 19.0972 148.326 21.0623 147.442C30.0051 143.418 37.6632 135.314 44.7778 128.707C46.7195 126.904 48.3532 124.825 50.4201 123.153C52.3298 121.608 54.5087 120.41 56.2828 118.701C59.7898 115.322 63.308 111.959 67.0826 108.871C70.8088 105.822 73.8632 102.258 77.3975 99.0411C81.2183 95.5637 85.6649 92.6739 89.696 89.4315C101.319 80.0828 113.519 71.0317 125.82 62.6084C135.255 56.1478 144.579 49.5153 153.988 43.0145C160.969 38.1914 168.162 33.6673 174.948 28.5781C178.795 25.6929 183.262 22.5741 186.299 18.8362C187.226 17.6952 190.064 14.3915 189.407 15.7065C188.736 17.0472 186.691 18.5577 185.66 19.6297C183.088 22.3045 180.309 24.7685 177.703 27.4099C170.826 34.3805 163.365 40.756 156.434 47.687C146.507 57.6143 136.775 67.4698 126.195 76.7362C114.704 86.8008 103.554 97.0029 93.5751 108.563C89.3997 113.399 84.5108 117.581 80.2628 122.36C77.8442 125.081 75.0081 127.452 72.2401 129.809C70.1306 131.606 68.4973 133.837 66.2892 135.54C64.8984 136.613 63.314 137.275 61.9252 138.317C58.9098 140.579 56.5346 144.196 52.8886 145.458C51.728 145.86 48.0622 146.362 47.1581 145.458C41.1034 139.403 107.945 86.8559 116.365 80.3068C128.066 71.2056 140.647 63.8628 152.842 55.5114C166.006 46.4963 179.082 37.5073 191.853 27.9609C203.07 19.5766 214.694 11.7252 227.074 5.17118C227.935 4.7153 227.32 5.28534 226.941 5.54587C225.519 6.52408 224.252 7.73473 222.864 8.76376C213.002 16.0749 202.842 22.9044 193.22 30.5617C173.742 46.0615 155.073 62.7181 136.157 78.8962C130.672 83.5877 125.429 88.5809 119.869 93.1784C116.297 96.1326 113.283 99.5994 109.731 102.546C102.994 108.132 98.0749 115.73 92.4731 122.382C88.1193 127.552 86.6689 134.526 82.555 139.816C81.1187 141.662 78.0009 147.964 79.3811 146.075C90.6356 130.674 105.199 118.27 118.745 104.992C129.029 94.9116 140.025 85.5806 150.792 76.031C160.838 67.1203 172.211 59.7536 182.354 50.949C188.67 45.4665 195.206 40.1532 201.176 34.2865C205.081 30.4496 208.971 27.2284 213.651 24.3683C220.548 20.1536 227.098 16.384 234.678 13.5686C235 13.4489 239.912 11.7691 238.38 12.8633C234.266 15.8021 230.591 19.3576 226.875 22.7814C204.108 43.7599 176.274 58.9337 154.274 80.7917C142.671 92.3203 130.799 103.911 120.332 116.519C117.349 120.113 114.258 123.605 111.274 127.187C108.845 130.101 106.527 132.595 104.97 136.069C103.717 138.864 102.65 141.746 101.422 144.554C101.173 145.123 100.217 146.98 101.444 145.943C106.035 142.058 109.983 137.356 114.359 133.204C123.495 124.534 132.314 115.551 141.667 107.108C148.596 100.853 155.28 94.3404 162.672 88.638C169.478 83.3871 175.428 77.1478 182.045 71.667C187.371 67.256 191.796 61.8582 197.077 57.3407C203.212 52.0921 209.389 46.9541 215.767 42.0006C221.823 37.2973 228.541 33.5723 234.986 29.4376C238.805 26.9879 242.263 24.1612 245.918 21.5031C248.46 19.6542 251.112 17.1428 253.941 15.7285C254.703 15.3475 253.576 16.4427 253.456 16.522C250.637 18.38 248.548 21.4239 246.359 23.9275C237.787 33.7307 228.88 43.0627 218.72 51.2576C211.011 57.4761 203.606 63.9397 196.151 70.4547C179.724 84.8109 162.452 98.6366 148.191 115.219C143.975 120.122 140.55 125.772 135.915 130.294C132.471 133.654 129.42 137.384 126.019 140.786C124.387 142.418 122.272 143.971 120.861 145.767C119.963 146.909 119.818 147.276 121.104 146.119C128.83 139.165 137.434 133.175 145.59 126.746C153.525 120.491 160.669 113.21 168.755 107.174C180.744 98.2247 191.721 87.4905 202.609 77.2432C211.094 69.2567 219.297 61.1249 228.969 54.5196C237.125 48.9499 245.952 44.2318 254.734 39.8407C255.005 39.7051 258.253 38.4855 257.071 39.2456C252.787 41.9994 249.772 46.4934 246.315 50.1556C231.807 65.5237 212.471 75.6834 198.311 91.5033C186.745 104.425 173.79 116.155 162.694 129.501C157.041 136.299 150.446 142.399 144.841 149.249C143.951 150.336 142.085 152.76 144.532 150.748C152.323 144.342 161.147 139.591 169.13 133.468C175.369 128.681 181.655 124.056 187.776 119.098C192.974 114.887 198.109 110.693 203.248 106.403C213.723 97.6568 222.585 87.2378 233.267 78.6758C237.948 74.9235 242.758 71.0291 247.681 67.6115C249.592 66.2852 253.343 64.4093 254.646 62.4541C254.907 62.0627 256.371 61.3908 255.924 61.837C251.618 66.1436 248.425 71.8111 244.596 76.5599C238.184 84.5105 231.696 92.1476 223.834 98.7325C216.113 105.199 208.308 111.558 200.559 117.996C194.047 123.405 187.803 129.259 181.604 135.033C178.166 138.236 175.247 141.974 172.436 145.723C171.276 147.269 170.495 148.415 172.568 146.406C179.277 139.9 186.671 134.955 194.388 129.655C200.517 125.445 206.245 120.759 212.196 116.321C219.595 110.803 227.161 105.608 234.281 99.7023C239.205 95.6173 243.757 91.0582 248.585 86.8528C250.477 85.2053 252.124 83.3249 254.316 82.0921C254.528 81.9727 255.769 81.0946 254.955 81.8717C249.898 86.6985 245.483 92.2635 240.761 97.4101C231.969 106.991 222.63 116.226 213.298 125.291C207.294 131.124 201.962 137.117 196.724 143.629C195.436 145.23 192.981 148.087 191.06 148.94C188.449 150.101 192.722 147.653 193.308 147.199C206.601 136.913 220.684 127.61 235.03 118.877C240.374 115.625 245.48 111.562 250.458 107.769C253.002 105.831 255.873 104.194 258.305 102.127C258.628 101.852 254.796 105.37 254.073 106.05C246.037 113.601 239.053 122.235 230.975 129.765C225.391 134.97 220.179 140.077 215.282 145.943C214.938 146.355 210.315 151.196 213.254 149.161C217.626 146.135 221.659 142.6 225.994 139.507C230.713 136.139 235.534 132.918 240.188 129.457C245.17 125.751 250.381 121.759 255.969 118.966C257.36 118.27 261.467 116.115 260.222 117.048C258.709 118.183 257.435 119.679 256.233 121.126C252.373 125.772 248.797 130.539 244.662 134.967C241.449 138.407 238.217 141.785 235.118 145.326C234.085 146.507 232.516 147.755 231.967 149.293C231.67 150.124 232.703 149.497 232.936 149.293C234.518 147.909 236.149 146.694 237.917 145.546C242.514 142.563 247.179 139.603 251.847 136.73C253.264 135.858 257.652 133.68 256.475 134.857C255.12 136.212 253.837 137.591 252.751 139.221C252.039 140.289 251.163 143.387 249.974 143.783"
          vector-effect="non-scaling-stroke" stroke="#71A7FC" stroke-width="9vh" stroke-linecap="round"/>
</svg>