<svg xmlns="http://www.w3.org/2000/svg" viewBox="0 0 199 194" fill="none">
    <path d="M6 25.7914C7.15709 33.0722 6.56903 127.679 6.77358 135.11C6.77358 138.633 7.18657 186.27 12.2948 187.207C23.6133 189.284 25.0659 188.266 31.6193 188.266H129.014C143.715 188.266 161.425 190.743 175.669 186.204C179.587 184.956 186.464 184.224 189.417 181.022C192.08 178.136 191.626 172.829 191.626 169.21V120.067C191.626 109.935 191.39 99.7716 191.681 89.6444C191.927 81.0604 193.613 72.6873 193.613 64.0698C193.613 57.6603 193.472 51.4462 192.84 45.0699C192.294 39.5555 193.042 33.9253 189.417 29.2459C182.127 19.8359 173.767 13.1372 162.087 10.246C142.862 5.48723 122.749 6.59348 103.064 5.50993C81.5423 4.32524 60.5069 5.40121 39.0178 6.73573C24.3093 7.64916 11.3967 10.2909 6 25.7914Z"
          stroke="#71A7FC" stroke-width="10" stroke-linecap="round"/>
    <path d="M121.109 38.6661C125.597 38.6661 143.317 37.1672 147.609 38.6664C157.915 38.6664 154.936 58.1377 154.936 65.3515C154.936 83.655 155.93 101.822 155.93 120.122C155.93 126.652 157.559 151.362 155.93 157.732C147.609 165.166 115.936 160.952 114.962 155.166C112.475 140.388 114.189 113.663 114.189 98.671C114.189 83.3077 113.021 67.3211 114.962 52.0905C115.674 46.4988 114.607 38.6661 121.109 38.6661Z"
          stroke="#71A7FC" stroke-width="10" stroke-linecap="round"/>
    <path d="M49.109 38.6661C53.5968 38.6661 71.3174 37.1672 75.609 38.6664C85.9155 38.6664 82.9359 58.1377 82.9359 65.3515C82.9359 83.655 83.9297 101.822 83.9297 120.122C83.9297 126.652 85.5586 151.362 83.9297 157.732C75.6089 165.166 43.9355 160.952 42.9618 155.166C40.4751 140.388 42.1889 113.663 42.1889 98.671C42.1889 83.3077 41.0214 67.3211 42.9619 52.0905C43.6743 46.4988 42.607 38.6661 49.109 38.6661Z"
          stroke="#71A7FC" stroke-width="10" stroke-linecap="round"/>
    <path d="M9.95718 65.7325C10.8095 65.7325 11.5037 65.2544 12.2147 64.8154C16.5845 62.1175 20.793 59.0979 25.0368 56.2086C32.1589 51.3594 39.574 46.9101 46.642 41.9932C48.4071 40.7653 50.3472 39.3585 51.6862 37.6369C52.8944 36.0834 50.9279 38.9519 50.5927 39.3829C46.1251 45.127 44.1461 51.9523 40.4162 58.0957C37.7598 62.4709 34.3411 66.311 31.2273 70.3534C29.8417 72.1523 27.8619 73.6196 26.7123 75.5739C26.361 76.171 25.3871 76.597 24.8251 76.8967C22.4701 78.1527 20.8426 80.0747 18.7756 81.6057C17.4618 82.5789 16.5902 84.0853 15.6715 85.3977C14.5549 86.9929 14.1016 87.0026 16.2183 87.0026C20.9538 87.0026 25.7602 86.6852 30.4337 86.6852C31.2038 86.6852 31.974 86.6852 32.7441 86.6852C33.5889 86.6852 33.407 87.3096 34.0845 87.7081C34.6992 88.0697 35.6333 88.5867 36.1304 89.0838C36.6598 89.6132 33.8247 91.0025 33.4496 91.2002C29.8273 93.1102 26.9431 96.3663 24.0844 99.225C21.08 102.229 18.5826 105.756 16.3418 109.366C15.174 111.248 13.8234 113.154 12.8144 115.116C12.6508 115.434 11.9629 116.068 12.3205 116.068C13.0546 116.068 14.6445 115.145 15.407 114.94C20.7683 113.496 25.9024 112.411 30.9099 109.86C32.877 108.858 34.7481 107.618 36.5537 106.368C36.8676 106.151 38.7307 104.685 37.5766 105.592C35.9154 106.897 34.5297 108.556 32.8146 109.86C26.4195 114.724 20.6292 120.252 15.6539 126.545C12.1066 131.031 9.46026 135.801 7.55856 141.219C6.96594 142.907 6.52521 144.709 6.21815 146.474C6.0031 147.711 7.67812 146.981 8.29931 146.809C14.4073 145.12 19.436 142.047 24.6664 138.573C26.3472 137.457 27.9725 136.313 29.6047 135.134C29.9537 134.882 30.6092 134.673 30.8393 134.305C31.4026 133.404 34.0664 132.674 35.0369 133.106C35.5066 133.314 36.4183 133.453 36.2891 134.164C36.14 134.984 35.1413 135.581 34.7194 136.28C33.3795 138.502 32.3195 140.756 31.3861 143.176C29.8936 147.045 28.5055 151.243 26.4653 154.87C25.3155 156.914 23.8765 158.808 22.6558 160.813C21.7118 162.364 21.1717 164.084 20.4335 165.734C20.0266 166.643 20.0531 167.655 19.6399 168.573C19.4176 169.067 18.8767 169.629 18.8462 170.178C18.7873 171.239 20.5834 169.334 20.9803 169.014C25.1537 165.649 29.6576 162.74 33.9434 159.526C35.4845 158.37 36.992 157.186 38.529 156.034C39.6663 155.181 40.8194 154.355 41.9506 153.494C42.0897 153.388 43.5732 152.553 43.5732 152.594C43.5732 153.701 42.3239 155.504 42.0211 156.598C41.1306 159.814 40.5464 162.981 39.1816 166.051C38.1346 168.407 36.8992 170.36 35.4249 172.471C34.4678 173.842 33.8012 175.48 33.1321 177.004C32.5689 178.287 31.6383 179.54 31.2979 180.902C31.2014 181.288 30.9099 182.428 30.9099 182.03C30.9099 181.288 32.8747 181.225 33.3438 181.096C37.3253 179.994 41.5017 177.869 45.1252 175.893C48.138 174.249 50.7706 172.106 53.6086 170.214C55.2815 169.098 56.7248 168.491 58.1942 167.021C59.2623 165.953 59.6377 165.475 58.8468 167.145C57.1807 170.662 57.5159 175.408 57.2594 179.191C57.2278 179.658 56.3938 184.731 57.2594 184.782C57.8027 184.814 58.0268 184.614 58.4235 184.27C60.1095 182.809 61.9761 181.545 63.7498 180.196C72.8122 173.304 79.7281 163.858 88.4415 156.527C89.0705 155.998 93.3973 152.723 91.528 155.293C89.1795 158.522 88.5482 162.933 87.4362 166.686C86.3937 170.205 84.2439 174.241 84.2439 177.956C84.2439 179.283 83.9265 183.252 83.9265 181.925"
          stroke="#71A7FC" stroke-width="10" stroke-linecap="round"/>
    <path d="M35.3545 9.54107C28.6614 9.54107 23.6129 18.2795 21.0686 23.5095C19.0478 27.6634 16.5851 32.0163 15.5129 36.5432C15.3272 37.3274 13.6028 45.4412 13.9609 45.3617C16.3432 44.8323 18.7809 40.9299 20.4513 39.3475C28.3248 31.8884 35.3819 23.2574 44.2435 16.9133C47.7315 14.4162 51.047 11.9642 54.7904 9.85853C56.272 9.0251 57.7506 8.27039 59.1643 7.31882C59.206 7.29078 61.0265 5.99311 60.6811 6.68389C60.3027 7.44075 59.3615 8.09978 58.8292 8.76504C57.4309 10.5129 56.219 12.2924 55.2137 14.303C53.2261 18.2781 52.513 22.8477 50.5928 26.8253C50.0243 28.0029 49.6137 29.2424 49.1818 30.4761C49.0931 30.7297 48.6378 32.3402 48.882 32.2045C50.0217 31.5714 50.8684 30.5036 51.8803 29.7001C53.9706 28.0402 56.128 26.5237 58.3707 25.0792C67.9005 18.9413 77.3271 12.6114 86.7838 6.36642C87.2944 6.02924 88.1244 5.13184 88.7944 5.13184C88.864 5.13184 87.715 6.38759 87.5598 6.54279C83.8443 10.2583 81.0381 15.2756 77.93 19.5059C75.8601 22.3233 73.4991 26.0778 72.4979 29.4708C72.1862 30.5269 71.0599 33.1343 73.2033 32.2574C74.9092 31.5596 76.3495 30.1142 77.9653 29.2239C80.595 27.7749 83.2567 26.3771 85.9019 24.9557C91.5713 21.9095 96.9371 18.3369 102.586 15.2554C106.964 12.8677 111.062 10.3084 115.638 8.30648C118.488 7.05934 116.19 8.5849 115.056 9.3647C112.338 11.2333 110.496 14.4128 108.848 17.1779C105.785 22.315 101.902 26.8721 99.1649 32.2222C97.0972 36.2636 94.6536 40.0826 92.4981 44.0742C92.0025 44.992 87.6481 51.8522 88.7591 52.9632C89.0804 53.2844 93.6151 50.7127 94.156 50.494C97.4685 49.1549 101.406 49.5819 104.809 48.5187C107.645 47.6322 110.417 46.6844 113.416 46.6844C115.511 46.6844 111.136 49.2948 110.453 49.8415C109.094 50.9282 108.238 52.3311 107.348 53.8098C105.044 57.6386 102.393 61.3709 99.7293 64.9563C96.2781 69.6011 92.6044 74.1417 90.2053 79.4539C89.6194 80.7512 89.0486 81.9998 88.5122 83.3164C88.2463 83.9691 87.454 84.8116 87.454 85.5562C87.454 85.8617 94.0047 83.4539 94.5969 83.3693C96.3087 83.1247 113.451 81.509 113.451 82.7167C113.451 84.5998 110.569 85.5537 109.324 86.6145C104.948 90.3417 102.442 96.311 99.0944 100.9C97.1027 103.631 94.2747 106.418 92.8862 109.542C92.739 109.874 92.5378 110.456 92.4981 110.812C92.4587 111.168 91.8444 111.445 92.0043 111.765C93.5385 114.833 98.6771 115.967 101.705 116.209C105.307 116.497 108.867 116.527 112.481 116.527C114.879 116.527 112.492 117.649 111.387 118.273C108.529 119.888 106.224 123.408 104.209 125.927C101.28 129.589 97.8664 133.452 95.9903 137.797C94.2844 141.747 92.2179 145.656 90.3464 149.543C89.0228 152.292 90.0311 151.583 91.9338 150.425C95.7544 148.099 100.213 146.513 104.244 144.534C104.993 144.166 111.325 142.76 110.735 143.688C110.18 144.559 109.293 145.071 108.689 145.91C107.383 147.724 106.536 149.651 105.832 151.765C104.428 155.976 103.498 160.39 101.687 164.464C100.508 167.117 98.833 169.82 98.142 172.647C97.8442 173.865 97.4887 175.398 97.0132 176.528C96.7885 177.061 96.9427 177.86 96.9427 178.432C96.9427 179.468 97.8998 178.309 98.3536 177.974C103.944 173.839 110.488 171.395 116.308 167.639C118.152 166.448 120.07 165.488 122.005 164.464C122.826 164.029 123.854 162.769 124.721 162.577C125.554 162.392 124.859 163.271 124.721 163.547C123.84 165.308 123.724 167.473 123.451 169.385C122.839 173.665 122.34 177.897 122.34 182.224C122.34 182.648 121.851 185.617 122.199 185.716C122.654 185.846 122.856 185.217 123.116 184.958C125.185 182.889 127.508 181.078 129.571 178.997C133.319 175.216 136.382 170.8 140.188 167.074C141.268 166.018 143.124 163.884 144.721 163.529C145.773 163.295 144.926 167.08 144.897 167.497C144.699 170.381 144.785 173.366 145.268 176.21C145.445 177.255 145.675 179.679 146.785 180.267C148.127 180.977 151.958 176.233 152.499 175.505C155.056 172.06 157.205 169.053 157.825 164.711C158.074 162.968 157.03 159.015 158.372 157.674C159.477 156.569 161.429 159.474 161.882 160.055C164.346 163.209 166.312 166.439 168.355 169.843C169.047 170.998 168.791 172.414 169.501 173.529C170.359 174.878 171.276 174.836 172.429 175.963C172.984 176.505 174.786 179.904 175.427 178.044C177.854 171.005 182 164.759 185.445 158.185C187.581 154.109 190.277 149.851 190.277 145.099C190.277 143.866 190.595 142.721 190.595 141.465C190.595 139.826 187.632 140.738 186.626 141.148C179.018 144.248 171.916 148.708 164.175 151.377C163.019 151.776 161.736 152.764 160.594 153.018C159.69 153.219 161.152 150.502 161.265 150.301C162.822 147.525 164.618 144.935 166.855 142.665C173.246 136.18 180.68 130.886 187.085 124.481C188.405 123.161 189.675 121.628 191.194 120.53C191.3 120.454 192.545 119.475 192.288 119.402C191.589 119.202 190.407 119.636 189.713 119.772C188.227 120.063 186.708 120.115 185.198 120.266C179.461 120.839 173.894 121.901 168.372 123.581C165.335 124.506 162.511 125.837 159.554 126.932C158.678 127.257 158.914 127.093 159.554 126.544C160.791 125.484 161.912 124.043 162.975 122.805C167.562 117.468 173.397 113.254 179.289 109.419C181.732 107.829 184.928 106.673 186.962 104.639C188.084 103.517 189.168 103.555 187.085 103.034C183.018 102.018 179.256 101.606 175.039 101.606C170.806 101.606 166.573 101.606 162.34 101.606C161.402 101.606 158.255 101.256 159.236 99.3836C159.989 97.9471 161.905 96.6682 163.011 95.5211C165.246 93.2028 167.411 90.7937 169.942 88.7838C172.417 86.8182 174.703 85.1165 176.961 82.8578C180.534 79.2857 184.883 75.0739 187.173 70.4943C187.473 69.8942 187.336 69.8816 186.715 69.8594C185.439 69.8138 184.402 69.0482 183.223 68.6601C178.76 67.1914 173.592 67.0022 168.937 67.0022C166.539 67.0022 163.987 67.2485 161.882 65.9087C160.213 64.847 163.183 63.6084 163.963 63.175C170.6 59.4879 177.042 55.4761 183.681 51.7992C186.23 50.3876 189.615 48.6165 191.706 46.5257C191.971 46.2607 193.929 44.5458 193.134 44.4622C192.161 44.3597 191.15 44.0818 190.207 43.8273C187.717 43.1554 185.259 43.1781 182.693 43.1923C174.951 43.2353 166.565 44.2936 159.236 47.0019C157.059 47.8066 161.294 42.9333 161.6 42.5221C165.215 37.6538 169.025 32.8582 173.628 28.8711C175.194 27.5145 176.924 26.2331 178.672 25.1145C179.3 24.7127 180.115 24.3907 180.436 23.6683C181.156 22.0479 178.609 21.1098 177.314 20.8111C171.72 19.5202 166.762 20.47 161.847 23.2097C157.063 25.876 152.518 29.0701 147.596 31.4461C146.7 31.8789 143.977 33.2829 143.927 31.4461C143.767 25.517 147.757 20.1303 150.453 15.1496C151.094 13.9664 157.031 5.91916 152.358 6.04896C149.451 6.12971 146.344 8.81771 144.069 10.3524C139.63 13.3456 135.04 16.9846 131.423 20.9522C128.329 24.3458 124.782 27.4163 121.546 30.6525C119.782 32.4166 118.303 34.4655 116.555 36.2787C115.261 37.6201 114.41 39.3011 113.133 40.6526C112.796 41.0095 112.181 42.069 112.181 42.5574"
          stroke="#71A7FC" stroke-width="10" stroke-linecap="round"/>
</svg>