<svg viewBox="0 0 316 330" fill="none" xmlns="http://www.w3.org/2000/svg">
    <path d="M131.557 131.329C131.557 139.924 133.043 143.102 128.543 150.102C115.043 154.771 106.799 154.567 103.043 154.567H80.1523C75.8561 154.567 11.5435 153.159 8.04371 155.602C4.2621 156.624 3.54348 189.602 8.54361 197.102C16.5435 202.102 120.043 198.602 128.543 198.602C130.978 198.602 142.58 197.51 143.372 200.182C144.163 202.854 144.232 204.891 144.232 207.38V224.828C144.232 236.947 143.528 248.944 143.528 261.054V275.686C143.528 280.012 140.043 309.602 147.91 321.102C153.543 327.602 180.55 324.527 186.543 321.102C196.043 318.102 190.152 269.625 190.543 266.102C190.222 257.426 187.9 215.728 187.9 215.728C187.9 215.728 185.543 198.602 189.043 191.602C199.716 186.602 215.742 189.602 226.043 189.602H248.043C265.256 189.602 276.043 190.48 293.543 189.102C298.613 188.703 310.043 189.137 310.043 182.602C311.043 177.102 309.945 156.01 308.543 151.102C306.084 142.494 288.236 144.058 280.043 143.603C270.312 141.833 191.043 151.75 182.543 134.603C181.043 122.976 181.043 112.729 181.043 101.103C181.043 85.9859 180.543 70.693 180.543 55.6026C180.543 43.5862 182.043 14.6026 173.543 7.10263C169.59 5.34563 135.043 2.60289 130.043 9.10254C125.043 21.6029 128.036 45.9885 128.036 56.843C128.825 59.3669 131.557 128.712 131.557 131.329Z"
          stroke="#71A7FC" stroke-width="10" stroke-linecap="round"/>
</svg>
