<svg  viewBox="0 0 303 446" fill="none" xmlns="http://www.w3.org/2000/svg">
    <path vector-effect="non-scaling-stroke" d="M123.115 354.143C120.288 355.005 118.383 356.942 115.989 358.538C114.676 359.413 113.29 360.29 112.233 361.479C111.142 362.706 109.783 363.659 108.711 364.883C107.819 365.903 106.76 366.768 105.871 367.791C104.987 368.808 104.188 369.82 103.358 370.866C101.583 373.105 100.479 375.772 99.3664 378.379C98.6814 379.984 98.4211 381.761 97.9714 383.438C97.5198 385.123 97.1166 386.808 96.8789 388.54C96.5281 391.096 96.7949 393.834 96.7949 396.414C96.7949 399.121 96.7684 401.641 97.3243 404.297C97.6539 405.872 98.1934 407.347 98.9462 408.767C99.3037 409.442 99.5034 410.224 99.9715 410.835C100.408 411.405 100.715 411.823 100.955 412.524C101.427 413.903 102.202 415.213 102.778 416.558C103.333 417.851 103.998 419.514 104.93 420.583C105.606 421.36 105.972 422.304 106.779 423.003C107.598 423.715 108.379 424.42 109.216 425.104C110.915 426.495 112.738 427.638 114.275 429.256C115.275 430.309 116.136 431.318 117.283 432.256C118.046 432.88 119.069 433.641 119.972 434.046C121.11 434.556 122.162 435.38 123.317 435.912C124.946 436.661 126.635 437.303 128.334 437.87C131.17 438.815 134.012 439.721 136.965 440.248C141.246 441.012 145.784 441.589 149.814 439.525C151.042 438.896 152.088 437.969 153.285 437.281C154.739 436.446 156.413 435.889 157.941 435.189C159.143 434.638 160.301 433.984 161.504 433.441C162.76 432.874 163.76 432.03 164.941 431.374C165.932 430.823 166.755 430.022 167.756 429.466C169.019 428.764 170.123 427.957 171.219 427.02C173.577 425.005 175.926 423.046 177.799 420.549C178.767 419.258 179.834 418.031 180.832 416.759C181.887 415.417 182.745 414.011 183.723 412.616C184.549 411.439 185.119 410.503 185.438 409.087C185.812 407.421 186.06 405.699 186.261 404.002C186.659 400.652 186.648 397.328 186.648 393.96C186.648 390.336 186.759 386.827 185.707 383.321C185.544 382.78 185.211 382.316 184.917 381.842C184.427 381.052 184.16 380.149 183.707 379.337C182.705 377.544 181.406 376.021 180.236 374.346C178.065 371.236 175.645 368.569 172.765 366.093C171.299 364.833 169.886 363.478 168.344 362.311C167.015 361.306 165.529 360.501 164.176 359.521C162.927 358.617 161.571 357.799 160.193 357.101C159.495 356.747 158.831 356.292 158.092 356.025C157.086 355.663 155.984 355.515 154.957 355.202C151.718 354.214 148.376 352.814 145.352 351.303C143.368 350.311 140.854 350.114 138.679 349.916C137.38 349.798 135.788 349.755 134.503 349.992C133.109 350.248 131.747 350.656 130.326 350.781C128.731 350.923 127.122 351.224 125.687 351.941C124.384 352.593 122.784 353.689 121.3 353.689"
          stroke="#71A7FC" stroke-width="3vh" stroke-linecap="round"/>
    <path vector-effect="non-scaling-stroke" d="M130.83 354.143C123.787 364.497 116.339 374.706 110.342 385.724C107.092 391.694 103.894 397.725 100.963 403.859C99.943 405.994 98.6661 408.797 97.7696 411.019C97.2584 412.286 96.1769 414.459 96.3242 415.969C96.5613 418.4 100.394 413.056 101.703 410.994C104.81 406.098 107.599 401.006 110.762 396.145C116.558 387.236 123.397 378.828 131.401 371.807C136.313 367.5 141.757 363.314 147.554 360.261C150.091 358.924 152.852 357.752 155.672 357.151C156.841 356.902 158.092 356.786 157.42 358.319C156.837 359.648 155.661 361.163 154.848 362.261C152.77 365.066 150.613 367.808 148.579 370.648C144.275 376.656 140.252 382.854 136.141 388.993C131.194 396.381 125.596 403.623 121.653 411.624C121.034 412.881 120.024 414.829 120.09 416.33C120.141 417.482 121.324 416.691 121.754 416.33C124.742 413.821 126.774 409.923 129.057 406.817C134.171 399.862 139.501 392.98 145.242 386.531C149.992 381.195 155.052 376.434 161.369 373.017C163.828 371.687 166.419 370.582 169.076 369.715C169.235 369.663 172.009 368.49 172.378 369.37C172.542 369.762 172.115 371.031 172.025 371.236C170.904 373.779 168.97 376.071 167.311 378.253C162.321 384.816 156.991 391.097 151.789 397.489C145.999 404.603 140.362 411.881 135.469 419.65C134.535 421.132 132.193 424.196 132.04 426.247C131.981 427.036 133.518 425.574 134.057 424.995C138.213 420.523 141.827 415.566 145.923 411.036C152.302 403.982 159.354 397.57 166.781 391.64C171.427 387.931 176.186 383.971 181.404 381.068C181.556 380.984 183.551 379.644 183.891 380.497C184.317 381.565 183.142 383.497 182.715 384.295C180.046 389.281 176.615 393.953 173.387 398.582C169.347 404.373 165.147 410.041 161.193 415.893C159.509 418.386 157.741 421.04 156.109 423.583C154.998 425.312 153.743 427.12 152.949 429.037C151.777 431.865 156.401 428.401 156.898 428.045C160.554 425.433 163.784 422.236 167.193 419.322C171.619 415.54 176.231 412 180.816 408.414C181.925 407.546 182.096 407.411 183.085 406.607C183.287 406.443 183.482 406.269 183.69 406.111C183.991 405.882 183.921 406.007 183.723 406.263C182.674 407.619 181.469 408.864 180.295 410.112"
          stroke="#71A7FC" stroke-width="3vh" stroke-linecap="round"/>
    <path vector-effect="non-scaling-stroke" d="M87.3627 103.927C88.1495 102.353 103.989 83.2677 106.041 83.0262C110.207 80.5645 114.542 79.9728 119.026 78.5315C124.725 76.6997 131.343 74.4664 137.304 73.9119C143.305 73.3537 149.381 74.1615 155.383 74.2615C157.661 74.2995 159.934 75.0985 162.225 75.1605C164.303 75.2166 166.727 74.7467 168.717 75.4102C172.185 76.5661 175.496 77.2646 178.856 78.8561C184.207 81.3913 178.144 78.5315 197.933 88.5947C209.719 103.927 209.098 110.08 209.719 114.225C210.808 121.481 208.021 140.084 192.456 159.112C176.891 178.14 162.218 188.742 156.282 193.372C149.248 198.859 142.879 205.091 135.731 210.452C130.701 214.224 124.29 217.683 120.674 222.987C117.145 228.162 112.918 232.955 108.638 237.52C102.925 243.614 100.446 250.524 97.5008 258.146C96.1484 261.646 96.5446 265.51 96.6018 269.233C96.6514 272.452 96.7341 276.213 97.301 279.371C98.3597 285.27 103.536 290.647 107.389 294.928C110.858 298.782 116.275 301.743 120.873 304.042C128.778 307.995 141.343 308.265 149.04 303.843C151.215 302.593 155.307 302.304 156.831 300.247C158.885 297.475 161.6 294.936 164.822 293.605C169.772 291.56 171.324 286.623 173.487 282.118C175.984 276.915 176.964 270.982 179.205 265.637C180.564 262.396 181.295 259.641 183.6 256.848C185.502 254.544 187.26 252.191 189.218 249.931C192.091 246.617 195.036 243.453 197.933 240.142C200.405 237.317 202.928 235.193 205.624 232.651C211.836 226.794 218.822 222.327 226.5 218.543C234.015 214.838 241.713 210.771 247.85 205.083C254.044 199.343 261.911 195.54 267.552 189.077C272.919 182.926 277.181 176.063 281.435 169.1C283.497 165.727 285.849 162.52 287.828 159.112C289.61 156.043 292.211 152.902 293.421 149.573C294.769 145.867 296.63 142.022 297.067 138.087C297.548 133.76 297.966 129.668 297.966 125.302C297.966 119.318 297.478 113.841 296.518 107.972C295.449 101.44 291.433 97.1138 289.076 91.0918C287.88 88.0344 285.626 85.724 284.032 82.9014C282.519 80.2209 281.52 77.3906 280.636 74.4863C278.713 68.1683 275.87 61.2304 272.146 55.7332C270.095 52.705 267.562 49.9544 265.154 47.1932C263.073 44.8052 261.407 42.0346 259.062 39.8768C254.509 35.6883 249.335 32.3054 244.504 28.4402C240.147 24.9547 235.127 21.7246 229.996 19.5256C223.083 16.5629 215.489 13.8325 208.021 12.6836C203.957 12.0583 200.227 11.3352 196.085 11.3352C191.609 11.3352 187.842 10.6161 183.65 9.08784C176.811 6.5944 169.959 5.14375 162.674 5.04258C155.777 4.94678 148.871 5.04258 141.974 5.04258C130.418 5.04258 118.96 8.09927 107.689 10.3364C97.45 12.3685 87.1325 15.5576 77.5242 19.6754C73.0329 21.6003 68.5246 23.8716 64.3147 26.3426C61.1425 28.2045 57.4844 29.0603 54.5511 31.3867C49.4046 35.4684 42.6759 39.5202 38.7196 44.846C37.1077 47.0159 36.1522 49.5061 34.125 51.5881C32.3856 53.3745 31.1249 55.2307 29.6921 57.3402L29.6303 57.4312C27.1316 61.1098 24.6021 64.8599 22.0142 68.4184C18.9817 72.588 18.0699 77.8931 15.2471 82.1273C13.8976 84.1516 13.2379 86.3645 12.3255 88.5947C11.4757 90.6722 9.82292 92.2854 8.95448 94.3879C7.32234 98.3395 6.10177 102.775 5.83314 107.073C5.46 113.043 4.39734 119.808 5.45858 125.751C7.41153 136.688 18.6382 140.518 27.8324 144.13C30.9905 145.37 36.6094 145.475 39.9682 144.729C44.3691 143.751 49.2196 143.34 53.7271 143.006C56.3352 142.813 58.767 141.903 61.3431 141.658C62.6114 141.537 65.7086 140.865 66.7118 140.084C69.9831 137.54 71.5817 132.34 73.1293 128.748C74.9029 124.631 76.6384 120.741 79.0724 116.962C80.7199 114.404 81.4408 112.102 83.5172 109.795C84.8987 108.26 86.4413 105.769 87.3627 103.927Z"
          stroke="#71A7FC" stroke-width="3vh" stroke-linecap="round"/>
    <path vector-effect="non-scaling-stroke" d="M22.4383 83.2507C22.417 81.5746 21.9905 71.2364 21.3646 78.9557C20.7833 86.1244 21.2376 93.4658 22.1886 100.58C23.1314 107.633 24.6413 114.657 26.9081 121.406C26.9433 121.511 29.9501 130.539 31.1781 127.674C32.8084 123.87 32.7765 118.694 33.2257 114.664C34.5192 103.058 35.3249 91.3668 36.9713 79.8047C38.1632 71.4343 39.0973 61.6347 42.7645 53.8601C43.524 52.25 43.543 53.5629 43.5636 54.4844C43.6315 57.5179 43.5636 60.565 43.5636 63.5987C43.5636 74.3715 43.2022 85.1198 42.8644 95.8859C42.6102 103.988 41.3667 113.75 43.6635 121.656C44.2611 123.713 45.8258 124.815 46.6849 122.28C49.2595 114.685 49.5939 105.624 50.5055 97.7587C51.9206 85.5482 52.262 73.1707 54.2011 61.0267C54.9938 56.0629 56.058 44.8943 61.2429 41.8492C63.3062 40.6374 62.864 49.4536 62.866 49.6151C63.0449 64.2839 61.0993 78.727 59.8445 93.3139C58.949 103.725 58.1718 114.243 58.4961 124.702C58.5489 126.405 58.9252 131.741 60.6436 127.299C63.2737 120.501 64.3258 112.678 65.8375 105.6C69.288 89.4423 71.453 72.5414 77.1992 56.9815C79.9857 49.4359 84.5654 40.3844 90.8083 35.0571C93.8772 32.4384 96.0513 33.7846 96.6514 37.5542C98.0318 46.2247 95.0898 56.0185 93.2055 64.3478C90.6874 75.4784 88.0244 86.3287 87.2624 97.7587C87.1881 98.8734 87.261 102.102 87.7119 101.08C90.9103 93.8302 92.0739 85.3045 94.2043 77.7072C97.6072 65.5719 101.432 53.6203 106.989 42.2737C110.422 35.265 114.802 25.4731 122.271 21.6728C125.96 19.796 125.789 26.847 125.967 28.8644C126.775 37.9963 125.973 47.1614 124.918 56.2323C124.483 59.9807 124.204 62.0442 123.87 65.7212C123.853 65.9044 123.09 70.7708 123.695 71.3147C123.841 71.4466 129.806 56.4096 130.137 55.4583C133.084 46.9914 135.91 38.4457 139.351 30.1629C140.679 26.9689 142.388 23.1719 143.996 20.0747C144.585 18.9406 146.168 15.2909 147.717 14.5811C149.574 13.7299 148.733 18.5811 148.74 20.6241C148.775 30.1363 148.616 39.6322 148.391 49.1407C148.317 52.2529 146.915 59.6874 149.015 62.4501C150.219 64.0336 153.059 54.163 153.16 53.8601C155.901 45.6369 158.766 37.4463 162.275 29.5136C164.288 24.9616 166.591 16.9022 171.064 13.832C171.831 13.3057 171.624 22.2082 171.614 22.6217C171.349 33.0157 169.661 43.2588 168.617 53.5854C168.261 57.111 167.052 62.714 168.367 66.2207C169.469 69.1591 173.209 59.1699 173.312 58.9292C176.56 51.3126 180.167 43.9624 184.474 36.88C186.779 33.0891 189.134 29.1013 192.04 25.7181C192.7 24.9489 194.286 23.0916 195.586 23.271C197.616 23.551 197.161 31.4082 197.184 32.5101C197.382 42.1346 195.594 51.6069 194.886 61.1766C194.609 64.9257 194.298 68.9183 194.612 72.6881C194.658 73.2379 195.335 71.8285 195.536 71.3147C196.881 67.8765 198.056 64.373 199.381 60.9269C202.215 53.5597 205.37 46.2158 209.469 39.452C210.539 37.6868 216.582 26.5319 220.007 27.466C222.744 28.2124 220.311 40.886 220.082 42.3986C218.583 52.2936 215.964 62.0245 213.914 71.8141C212.744 77.401 211.419 82.9741 210.418 88.5945C209.897 91.5201 211.71 82.7847 212.616 79.9546C215.242 71.7504 218.268 63.7055 222.204 56.0326C223.33 53.8387 227.721 43.7468 231.294 44.0217C235.916 44.3772 226.686 84.1888 226.15 87.3459C225.207 92.9004 224.302 98.5754 224.302 104.226C224.302 109.301 227.629 98.4191 227.773 97.9835C230.815 88.8005 233.532 79.3755 238.036 70.7653C240.734 65.6082 244.126 61.017 248.074 56.7567C249.716 54.9844 252.525 51.547 255.116 50.7388C259.411 49.3991 257.3 58.5877 257.064 59.8032C254.912 70.8886 250.355 81.4999 246.975 92.2402C244.551 99.9446 242.437 107.682 241.632 115.738C241.495 117.106 240.758 120.717 241.831 119.858C243.366 118.631 244.379 114.662 244.978 113.066C247.921 105.218 250.332 97.2161 253.867 89.5933C254.838 87.5 260.993 72.4041 265.654 74.8605C266.424 75.2664 266.763 76.9096 266.852 77.5074C267.534 82.0943 267.243 87.0492 267.052 91.6409C266.509 104.673 264.47 117.597 262.482 130.47C261.521 136.696 260.556 142.912 259.86 149.174C259.659 150.983 259.81 148.9 259.81 148.899C260.008 146.772 260.68 144.747 261.359 142.731C264.046 134.751 267.035 126.771 272.67 120.357C274.557 118.209 284.647 107.855 287.803 113.291C290.086 117.223 289.073 124.909 288.976 129.197C288.712 140.92 284.813 151.614 280.436 162.358C276.932 170.961 273.499 179.589 270.023 188.203C269.663 189.096 266.228 199.703 266.078 193.397C265.883 185.203 266.126 176.914 266.802 168.751C267.418 161.324 271.643 139.337 270.348 146.676C269.361 152.269 266.923 157.776 265.129 163.132C261.778 173.137 258.183 182.963 253.643 192.498C252.61 194.666 251.23 199.145 249.073 200.613C247.211 201.881 245.567 191.234 245.477 190.625C244.204 182.03 244.12 173.275 244.054 164.605C244.006 158.28 244.029 151.953 244.029 145.628C244.029 143.971 244.4 139.07 243.929 140.658C238.45 159.149 233.672 177.9 226.599 195.869C225.787 197.932 224.238 201.786 223.353 203.859C222.492 205.878 221.506 209.277 219.807 210.876C216.888 213.623 215.314 201.895 215.287 201.712C213.937 192.413 213.714 182.976 213.564 173.595C213.457 166.819 214.263 146.501 213.914 153.269C213.5 161.311 211.268 169.21 209.27 176.966C205.662 190.968 201.278 204.876 198.932 219.167C197.953 225.126 197.158 231.138 196.834 237.17C196.818 237.461 196.88 238.175 196.634 238.019C195.855 237.527 195.363 234.817 195.236 234.299C193.098 225.577 192.388 216.337 191.84 207.405C191.299 198.589 190.832 189.303 191.79 180.487C192.341 175.415 190.022 190.551 188.669 195.469C184.427 210.881 178.936 225.91 174.585 241.291C171.588 251.886 168.826 262.549 167.369 273.478C167.298 274.004 166.795 282.795 166.719 277.973C166.627 272.072 165.937 266.181 165.571 260.293C164.587 244.482 163.726 228.668 163.598 212.824C163.598 212.795 163.564 204.339 163.548 203.335C163.535 202.544 163.545 201.751 163.473 200.963C163.378 199.925 163.14 200.337 162.924 201.063C160.264 210.003 159.227 219.753 157.73 228.93C154.21 250.514 150.419 272.306 149.664 294.204C149.343 303.532 146.195 275.806 145.694 266.486C145.093 255.296 145.022 244.097 144.645 232.9C144.617 232.061 144.167 214.518 140.85 221.664C137.249 229.419 136.481 239.005 135.007 247.309C132.93 259 131.377 270.732 130.412 282.567C130.12 286.14 130.382 289.993 129.838 293.529C129.742 294.149 129.393 292.357 129.213 291.757C128.501 289.375 127.864 286.991 127.316 284.565C125.294 275.622 123.289 266.642 121.522 257.646C119.961 249.698 119.635 241.455 117.827 233.575C117.301 231.286 116.257 232.741 115.679 234.174C114.421 237.294 113.916 240.845 113.282 244.112C111.999 250.718 110.816 257.347 109.736 263.989C108.596 270.998 107.754 278.015 106.939 285.064C106.66 287.481 106.59 288.753 104.243 287.212C101.955 285.71 101.363 283.34 100.622 280.819C99.181 275.921 98.1154 270.973 97.3007 265.937C97.1248 264.849 96.5712 261.729 96.6015 264.788C96.627 267.364 97.0063 269.671 97.9499 272.03"
          stroke="#71A7FC" stroke-width="3vh" stroke-linecap="round"/>
</svg>
